<?xml version="1.0" encoding="UTF-8"?>
<svg width="1702px" height="452px" viewBox="0 0 1702 452" version="1.1" xmlns="http://www.w3.org/2000/svg" xmlns:xlink="http://www.w3.org/1999/xlink">
    <title>Group Copy 2</title>
    <g id="Brand" stroke="none" stroke-width="1" fill="none" fill-rule="evenodd">
        <g id="Artboard-Copy-48" transform="translate(-149, -224)" fill="#FFFFFF" fill-rule="nonzero">
            <g id="Group-Copy-2" transform="translate(149, 224)">
                <g id="q" transform="translate(243.5075, 226) rotate(-180) translate(-243.5075, -226)">
                    <path d="M243.507475,0 C383.555815,0 487.015054,97.0822873 487.015054,230.728033 L487.015003,385.97918 C487.010001,452 486.509743,452 436.48399,452 L252.150095,452 C96.2043779,452 -1.23912839e-15,365.004184 -1.23912839e-15,230.728033 C-1.23912839e-15,97.0822873 103.459134,0 243.507475,0 Z M147.827353,241.161032 C114.828705,241.161032 90.4019747,264.099555 90.4019747,295.607798 C90.4019747,327.309345 114.828705,350.247868 147.827353,350.247868 C180.890455,350.247868 205.317185,327.309345 205.317185,295.607798 C205.317185,264.099555 180.890455,241.161032 147.827353,241.161032 Z" id="Shape"></path>
                </g>
                <path d="M584.363711,450.775068 L933.881211,450.775068 C978.456607,450.775068 984.898138,416.773746 957.779287,386.37863 L887.502175,307.557393 C928.856805,281.412435 958.616678,236.399329 958.616678,175.222712 C958.616678,71.2224646 898.903684,7.27595761e-12 730.393217,7.27595761e-12 L584.363701,7.27595761e-12 C542.493747,7.27595761e-12 519.948387,22.5387534 519.948387,64.3964383 L519.948387,386.37863 C519.948387,428.236314 542.493747,450.775068 584.363701,450.775068 L584.363711,450.775068 Z M782.505212,210.12558 C749.524573,210.12558 725.111173,187.200444 725.111173,155.517398 C725.111173,124.027544 749.524573,101.102408 782.505212,101.102408 C815.550271,101.102408 839.963671,124.027544 839.963671,155.517398 C839.963671,187.200444 815.550271,210.12558 782.505212,210.12558 Z" id="Shape"></path>
                <path d="M1063.94662,450.775068 L1148.21252,450.775068 C1190.02384,450.775068 1212.53763,428.236314 1212.53763,386.37863 L1212.53763,64.3964383 C1212.53763,22.5387534 1190.02384,7.27595761e-12 1148.21252,7.27595761e-12 L1063.94662,7.27595761e-12 C1022.1353,7.27595761e-12 999.621505,22.5387534 999.621505,64.3964383 L999.621505,386.37863 C999.621505,428.236314 1022.1353,450.775068 1063.94662,450.775068 Z" id="Path"></path>
                <path d="M1702,184.624586 C1702,75.0218506 1642.36002,7.27595761e-12 1474.05561,7.27595761e-12 L1329.49139,7.27595761e-12 C1287.67263,7.27595761e-12 1265.15484,22.5387534 1265.15484,64.3964383 L1265.15484,386.37863 C1265.15484,428.236314 1287.67263,450.775068 1329.49139,450.775068 L1413.77226,450.775068 C1455.59102,450.775068 1478.10881,428.236314 1478.10881,386.37863 L1478.10881,368.721127 C1643.31863,367.529789 1702,293.345094 1702,184.624586 Z M1526.10388,210.447562 C1493.16357,210.447562 1468.78002,187.522426 1468.78002,155.839381 C1468.78002,124.349526 1493.16357,101.42439 1526.10388,101.42439 C1559.10853,101.42439 1583.49208,124.349526 1583.49208,155.839381 C1583.49208,187.522426 1559.10853,210.447562 1526.10388,210.447562 Z" id="Shape"></path>
            </g>
        </g>
    </g>
</svg>